<?xml version="1.0" encoding="UTF-8"?>
<!DOCTYPE svg PUBLIC "-//W3C//DTD SVG 1.1//EN" "http://www.w3.org/Graphics/SVG/1.1/DTD/svg11.dtd">
<svg version="1.1" xmlns="http://www.w3.org/2000/svg" xmlns:xlink="http://www.w3.org/1999/xlink" x="0" y="0" width="420" height="320" viewBox="0, 0, 420, 320">
  <defs>
    <clipPath id="Clip_1">
      <path d="M5.5,135.5 L415.5,135.5 L415.5,313.5 L5.5,313.5 z M407.5,145.5 L407.5,303.5 L13.5,303.5 L13.5,145.5 L407.5,145.5 z M409.5,143.5 L11.5,143.5 L11.5,305.5 L409.5,305.5 L409.5,143.5 z"/>
    </clipPath>
    <filter id="Shadow_2">
      <feGaussianBlur in="SourceAlpha" stdDeviation="2.5"/>
      <feOffset dx="0" dy="2" result="offsetblur"/>
      <feFlood flood-color="#000000"/>
      <feComposite in2="offsetblur" operator="in"/>
    </filter>
    <clipPath id="Clip_3">
      <path d="M4.5,3.5 L414.5,3.5 L414.5,81.5 L4.5,81.5 z M406.5,13.5 L406.5,71.5 L12.5,71.5 L12.5,13.5 L406.5,13.5 z M408.5,11.5 L10.5,11.5 L10.5,73.5 L408.5,73.5 L408.5,11.5 z"/>
    </clipPath>
    <filter id="Shadow_4">
      <feGaussianBlur in="SourceAlpha" stdDeviation="2.5"/>
      <feOffset dx="0" dy="2" result="offsetblur"/>
      <feFlood flood-color="#000000"/>
      <feComposite in2="offsetblur" operator="in"/>
    </filter>
  </defs>
  <g id="Layer_1_Copy">
    <g>
      <path d="M409.5,143.5 L409.5,305.5 L11.5,305.5 L11.5,143.5 L409.5,143.5 z M407.5,145.5 L13.5,145.5 L13.5,303.5 L407.5,303.5 L407.5,145.5 z" clip-path="url(#Clip_1)" filter="url(#Shadow_2)" fill="rgba(0,0,0,0.75)"/>
      <path d="M12.5,144.5 L408.5,144.5 L408.5,304.5 L12.5,304.5 L12.5,144.5 z" fill-opacity="0" stroke="#000000" stroke-width="2"/>
    </g>
    <text transform="matrix(1, 0, 0, 1, 204, 42)">
      <tspan x="-40.306" y="-4" font-family="HelveticaNeue-Bold" font-size="14" fill="#030302">Video Cloud</tspan>
      <tspan x="-57.673" y="13" font-family="HelveticaNeue-Bold" font-size="14" fill="#030302">Ingestion System</tspan>
    </text>
    <g>
      <path d="M204.5,72.5 L204.5,128.1" fill-opacity="0" stroke="#322E2E" stroke-width="4"/>
      <path d="M199.7,128.1 L204.5,140.9 L209.3,128.1 z" fill="#322E2E" fill-opacity="1" stroke="#322E2E" stroke-width="4" stroke-opacity="1"/>
    </g>
    <text transform="matrix(1, 0, 0, 1, 264, 114)">
      <tspan x="-42.504" y="-4" font-family="HelveticaNeue-Bold" font-size="14" fill="#030302">Notifications</tspan>
    </text>
    <text transform="matrix(1, 0, 0, 1, 270, 194)">
      <tspan x="-125.356" y="-12" font-family="HelveticaNeue-Bold" font-size="14" fill="#030302">Get DYNAMIC_RENDITION SUCCESS </tspan>
      <tspan x="-99.022" y="5" font-family="HelveticaNeue-Bold" font-size="14" fill="#030302">notifications as renditions are </tspan>
      <tspan x="-37.086" y="22" font-family="HelveticaNeue-Bold" font-size="14" fill="#030302">created . . .</tspan>
    </text>
    <text transform="matrix(1, 0, 0, 1, 266.5, 266)">
      <tspan x="-108.374" y="-12" font-family="HelveticaNeue-Bold" font-size="14" fill="#030302">Get TITLE SUCCESS notification </tspan>
      <tspan x="-97.58" y="5" font-family="HelveticaNeue-Bold" font-size="14" fill="#030302">when processing is complete</tspan>
    </text>
    <text transform="matrix(1, 0, 0, 1, 72, 182)">
      <tspan x="-47.048" y="-9" font-family="HelveticaNeue-Bold" font-size="17" fill="#030302">Notification</tspan>
      <tspan x="-31.79" y="12" font-family="HelveticaNeue-Bold" font-size="17" fill="#030302">Handler </tspan>
    </text>
    <g>
      <path d="M408.5,11.5 L408.5,73.5 L10.5,73.5 L10.5,11.5 L408.5,11.5 z M406.5,13.5 L12.5,13.5 L12.5,71.5 L406.5,71.5 L406.5,13.5 z" clip-path="url(#Clip_3)" filter="url(#Shadow_4)" fill="rgba(0,0,0,0.75)"/>
      <path d="M11.5,12.5 L407.5,12.5 L407.5,72.5 L11.5,72.5 L11.5,12.5 z" fill-opacity="0" stroke="#000000" stroke-width="2"/>
    </g>
    <g>
      <path d="M42.2,262.151 L42.606,262.783 L43.464,264.068 L44.356,265.344 L45.27,266.599 L46.671,268.44 L48.594,270.849 L50.555,273.217 L52.527,275.554 L54.486,277.873 L56.406,280.189 L57.338,281.342 L57.338,281.342 C58.819,283.176 62.779,282.047 66.182,278.82 C69.585,275.594 71.143,271.492 69.662,269.658 L68.695,268.463 L66.751,266.118 L64.793,263.799 L62.846,261.493 L60.933,259.184 L59.072,256.855 L57.725,255.086 L56.86,253.9 L56.023,252.705 L55.208,251.484 L54.8,250.849 C53.508,248.841 49.641,249.742 46.161,252.863 C42.682,255.984 40.909,260.142 42.2,262.151 L42.2,262.151" fill="#0AB41F"/>
      <path d="M67.152,277.822 L67.706,277.202 L68.806,275.974 L69.885,274.77 L70.947,273.587 L71.99,272.426 L73.017,271.284 L74.025,270.164 L75.016,269.065 L75.99,267.985 L76.945,266.928 L77.884,265.89 L78.804,264.873 L79.707,263.877 L80.592,262.902 L81.46,261.947 L82.31,261.011 L83.142,260.097 L83.956,259.205 L84.753,258.331 L85.533,257.478 L86.295,256.645 L87.039,255.832 L87.765,255.04 L88.475,254.268 L89.508,253.145 L90.821,251.72 L92.063,250.376 L93.234,249.113 L94.335,247.928 L95.366,246.823 L96.325,245.798 L97.214,244.85 L98.032,243.982 L98.777,243.194 L99.452,242.484 L100.053,241.854 L100.581,241.305 L101.032,240.838 L101.404,240.456 L101.692,240.165 L101.882,239.976 L101.946,239.915 L101.798,240.059 L100.982,240.769 L92.97,242.129 L94.595,235.592 L95.082,234.955 L95.122,234.903 L94.985,235.056 L94.732,235.334 L94.387,235.712 L93.959,236.177 L93.455,236.721 L92.876,237.341 L92.224,238.037 L91.499,238.806 L90.706,239.646 L89.842,240.556 L88.91,241.536 L87.907,242.586 L86.835,243.703 L85.695,244.89 L84.485,246.144 L83.205,247.468 L81.86,248.855 L80.446,250.309 L78.963,251.83 L77.412,253.417 L75.792,255.069 L74.106,256.785 L72.351,258.567 L70.528,260.412 L68.638,262.321 L66.68,264.294 L64.654,266.33 L62.56,268.429 L61.493,269.497 L61.493,269.497 C58.174,272.817 56.83,276.853 58.491,278.512 C60.152,280.17 64.189,278.823 67.507,275.503 L68.599,274.411 L70.72,272.284 L72.775,270.219 L74.763,268.216 L76.684,266.277 L78.537,264.401 L80.322,262.589 L82.04,260.84 L83.69,259.157 L85.272,257.538 L86.787,255.985 L88.235,254.495 L89.616,253.071 L90.926,251.716 L92.17,250.426 L93.347,249.201 L94.457,248.043 L95.499,246.953 L96.475,245.928 L97.382,244.971 L98.224,244.081 L98.997,243.259 L99.706,242.502 L100.352,241.81 L100.934,241.182 L101.456,240.615 L101.923,240.104 L102.345,239.635 L102.745,239.184 L103.184,238.672 L103.934,237.72 L105.682,231.012 L97.656,232.348 L96.688,233.181 L96.249,233.595 L95.886,233.951 L95.509,234.328 L95.091,234.752 L94.619,235.237 L94.088,235.787 L93.494,236.405 L92.835,237.096 L92.11,237.859 L91.318,238.697 L90.458,239.61 L89.531,240.598 L88.534,241.663 L87.468,242.806 L86.334,244.026 L85.13,245.325 L83.858,246.702 L82.517,248.157 L81.467,249.298 L80.744,250.085 L80.003,250.893 L79.245,251.721 L78.47,252.568 L77.677,253.436 L76.867,254.324 L76.038,255.233 L75.192,256.162 L74.33,257.11 L73.45,258.079 L72.552,259.069 L71.636,260.079 L70.703,261.109 L69.753,262.16 L68.785,263.233 L67.8,264.324 L66.797,265.437 L65.775,266.571 L64.737,267.726 L63.681,268.902 L62.607,270.098 L61.516,271.316 L60.41,272.551 L59.848,273.178 C59.848,273.178 59.848,273.178 59.848,273.178 C56.733,276.661 55.842,280.523 57.859,281.806 C59.876,283.088 64.036,281.305 67.152,277.822 L67.152,277.822" fill="#09B41F"/>
    </g>
    <path d="M81.381,394.698 L81.381,394.698 L81.381,394.698 C81.469,394.698 81.593,394.609 81.658,394.5 C81.724,394.391 81.706,394.302 81.619,394.302 L81.619,394.302 C81.531,394.302 81.407,394.391 81.342,394.5 C81.276,394.609 81.294,394.698 81.381,394.698 L81.381,394.698" fill="#000000"/>
  </g>
</svg>
